<svg width="900" height="620" viewBox="0 0 900 620" fill="none" xmlns="http://www.w3.org/2000/svg">
  <defs>
    <linearGradient id="bg" x1="0" y1="0" x2="900" y2="620" gradientUnits="userSpaceOnUse">
      <stop stop-color="#F4F9FF"/>
      <stop offset="1" stop-color="#E8F1FC"/>
    </linearGradient>
    <linearGradient id="blue" x1="180" y1="115" x2="720" y2="520" gradientUnits="userSpaceOnUse">
      <stop stop-color="#1E87EF"/>
      <stop offset="1" stop-color="#0A4B9B"/>
    </linearGradient>
    <linearGradient id="gold" x1="270" y1="260" x2="625" y2="495" gradientUnits="userSpaceOnUse">
      <stop stop-color="#D5A451"/>
      <stop offset="1" stop-color="#B27B2A"/>
    </linearGradient>
  </defs>
  <rect width="900" height="620" rx="28" fill="url(#bg)"/>
  <g opacity="0.35" stroke="#9AB8DB" stroke-width="2">
    <path d="M70 115H240V285"/>
    <circle cx="70" cy="115" r="6" fill="#9AB8DB"/>
    <circle cx="240" cy="285" r="6" fill="#9AB8DB"/>
    <path d="M830 115H660V285"/>
    <circle cx="830" cy="115" r="6" fill="#9AB8DB"/>
    <circle cx="660" cy="285" r="6" fill="#9AB8DB"/>
    <path d="M140 500H340V400"/>
    <circle cx="140" cy="500" r="6" fill="#9AB8DB"/>
    <circle cx="340" cy="400" r="6" fill="#9AB8DB"/>
    <path d="M760 500H560V400"/>
    <circle cx="760" cy="500" r="6" fill="#9AB8DB"/>
    <circle cx="560" cy="400" r="6" fill="#9AB8DB"/>
  </g>
  <rect x="370" y="170" width="160" height="265" rx="18" fill="url(#blue)"/>
  <rect x="355" y="145" width="190" height="38" rx="10" fill="#1A6FC5"/>
  <rect x="325" y="430" width="250" height="28" rx="10" fill="#D2E2F5"/>
  <rect x="285" y="460" width="330" height="24" rx="8" fill="#C1D4EC"/>
  <rect x="235" y="490" width="430" height="20" rx="7" fill="#AFC5E2"/>
  <rect x="210" y="250" width="140" height="16" rx="8" fill="#1A6FC5"/>
  <rect x="550" y="250" width="140" height="16" rx="8" fill="#1A6FC5"/>
  <path d="M280 266L222 350H338L280 266Z" fill="url(#gold)"/>
  <path d="M620 266L562 350H678L620 266Z" fill="url(#gold)"/>
  <rect x="275" y="345" width="10" height="44" rx="5" fill="#1A6FC5"/>
  <rect x="615" y="345" width="10" height="44" rx="5" fill="#1A6FC5"/>
  <circle cx="450" cy="235" r="13" fill="#9DD2FF"/>
  <path d="M435 328C435 318.611 442.611 311 452 311H448C457.389 311 465 318.611 465 328V350H435V328Z" fill="#9DD2FF"/>
  <g opacity="0.8" stroke="#2D6FB3" stroke-width="2">
    <path d="M320 110V80H350"/>
    <path d="M580 110V80H550"/>
    <path d="M320 545V575H350"/>
    <path d="M580 545V575H550"/>
  </g>
</svg>
